<?xml version="1.0" encoding="UTF-8"?>
<svg width="200px" height="200px" viewBox="0 0 200 200" version="1.1" xmlns="http://www.w3.org/2000/svg" xmlns:xlink="http://www.w3.org/1999/xlink">
    <!-- Generator: Sketch 50.2 (55047) - http://www.bohemiancoding.com/sketch -->
    <title>资源_1_slice</title>
    <desc>Created with Sketch.</desc>
    <defs></defs>
    <g id="Page-1" stroke="none" stroke-width="1" fill="none" fill-rule="evenodd">
        <g id="Artboard" transform="translate(-88.000000, -194.000000)" fill-rule="nonzero">
            <g id="资源-1" transform="translate(88.000000, 194.000000)">
                <path d="M100,0 C44.771525,-3.38186179e-15 6.76353751e-15,44.7727567 0,100.002751 C0,154.823801 50.2475792,200 100,200 C155.226673,200 200,155.230943 200,100.002751 C200,44.7727567 155.228475,3.38186179e-15 100,0 Z" id="Shape" fill="#EFEEEE"></path>
                <path d="M138.998378,150.393449 C138.926756,151.889815 137.654299,153.050896 136.14368,152.99828 L62.8546978,152.99828 C61.3440791,153.050896 60.0716218,151.889815 60,150.393449 L60,88.0799826 C60,86.6407588 60.7895973,85.2945646 62.42953,84.1727361 C62.42953,84.1727361 90.2310841,59 99.4964283,59 C108.551949,59 137.4744,84.7911099 137.4744,84.7911099 C139.241331,85.8855767 138.987335,86.6462311 138.987335,88.0745103 L138.998378,150.393449 Z" id="Shape" fill="#CECECF"></path>
                <path d="M137.021839,88.3825038 C137.021839,88.2377939 137.023676,88.1178741 137.028327,87.9011419 C137.045727,87.0901976 137.018919,86.8921216 136.859725,86.6539458 C136.717199,86.4407078 136.446433,86.1985038 135.989365,85.9088148 C135.839726,85.7925593 135.839726,85.7925593 135.772383,85.7313585 C135.705117,85.6702907 135.625377,85.5980891 135.533532,85.5151517 C135.27065,85.2777659 134.963759,85.0022096 134.615805,84.6916682 C133.620881,83.8037196 132.497003,82.8140065 131.26776,81.7480242 C127.755884,78.7025766 124.104863,75.6572879 120.504136,72.8165596 C118.907008,71.5565351 117.352439,70.3631348 115.850233,69.2468676 C107.963289,63.3861958 101.967482,59.9931504 98.9972729,59.9931504 C95.9993676,59.9931504 90.2383886,63.1959121 82.7351081,68.7574728 C81.1656905,69.9207521 79.5384745,71.1732396 77.8651297,72.5021038 C74.3749112,75.2738138 70.8469933,78.2452285 67.4614101,81.2168026 C66.2763757,82.256924 65.1939592,83.222612 64.2365672,84.0889798 C63.9017665,84.3919492 63.6066036,84.6607737 63.3538769,84.8923439 C63.2655959,84.9732348 63.1889716,85.0436475 63.1243538,85.1031937 C61.6022476,86.1970221 60.9672525,87.2573601 60.9672525,88.3880347 L60.9672525,151.342759 C61.0230622,152.300146 61.8220305,153.03946 62.7688507,153.005716 L135.19657,153.0051 C136.177944,153.039459 136.976895,152.300186 137.032743,151.342837 L137.021839,88.3825038 Z M138.488625,85.5363529 C138.95362,86.2320468 139.021151,86.7310241 138.995114,87.9444612 C138.990757,88.1475333 138.989092,88.2562524 138.989092,88.3823289 L139,151.368769 C138.902958,153.467081 137.202992,155.060253 135.180574,154.99825 L62.8194262,154.99825 C60.7970076,155.060253 59.0970421,153.467081 59.0011028,151.416122 L59,88.3880347 C59,86.5698906 59.9649925,84.9400094 61.7684744,83.6584211 C61.8666599,83.567909 61.9446584,83.4962333 62.0343262,83.4140719 C62.2900247,83.1797786 62.58821,82.9082013 62.9260933,82.6024424 C63.8906555,81.7295862 64.9804883,80.7572817 66.1732996,79.7103343 C69.5815615,76.7188548 73.1334915,73.7272158 76.6515349,70.933409 C78.341316,69.5914921 79.9857212,68.3257739 81.5735511,67.1488471 C89.4493596,61.3111622 95.4053245,58 98.9972729,58 C102.570124,58 108.739756,61.4914132 117.013694,67.6396553 C118.53181,68.7677447 120.101325,69.972618 121.712785,71.2439504 C125.33985,74.1054569 129.013602,77.1697056 132.546975,80.2337954 C133.783568,81.3061512 134.914456,82.3020378 135.916161,83.1960376 C136.267027,83.5091781 136.576774,83.7872987 136.842464,84.0272205 C136.935619,84.1113408 137.016657,84.1847179 137.085211,84.2469546 C137.738398,84.6756368 138.184726,85.0816783 138.488625,85.5363529 Z" id="Shape" fill="#757575"></path>
                <path d="M104.218571,115.249585 C109.023804,113.659808 112.909584,109.948485 117.101849,107.217615 C121.201074,104.553217 124.709223,101.01915 129,98.6871093 L129,63.423993 C123.603691,58.5937327 119.263657,52.4562 114.047954,47.2548073 L71.6217969,47 C70.1341259,47.0915528 68.9799814,48.3499232 69.0002632,49.8582733 L69.0002632,97.8063623 C69.1924872,97.8578017 69.37669,97.936105 69.5475563,98.0390124 C70.1454032,98.4086437 70.6842576,98.8681144 71.145652,99.4016776 C71.3491117,99.410203 71.5501756,99.4494098 71.7422014,99.5180027 C75.6608196,100.958218 78.2385699,104.026984 81.6427326,106.287014 C83.7607567,107.693994 86.021077,108.879402 88.1664657,110.230988 C89.8630742,111.300071 91.4885345,112.590726 93.4368978,113.144655 C94.0591212,113.30107 94.5527772,113.779629 94.7339823,114.402073 C95.7708629,114.912792 96.7793865,115.480493 97.7550399,116.102635 C98.4248619,116.478673 99.1332419,116.779577 99.8675911,117 C100.962177,116.783968 101.991088,116.579014 103.009053,116.318667 C103.231738,115.795511 103.676404,115.402474 104.218571,115.249585 Z" id="Shape" fill="#FFFFFF"></path>
                <path d="M103.850976,114.255689 C103.388348,114.384543 103.020384,114.704945 102.836084,115.131479 C102.795324,115.225813 102.71282,115.295887 102.612863,115.32107 C101.74089,115.540761 100.997403,115.696415 99.4359766,116 C98.5164961,115.767255 97.7818116,115.459821 97.0712025,115.066233 C96.1002935,114.456328 95.0966749,113.899795 94.064838,113.399123 C93.9810496,113.358467 93.9183124,113.284558 93.8919947,113.195501 C93.7429957,112.691301 93.3371432,112.303714 92.8159186,112.174481 C91.5130737,111.809587 90.551689,111.282431 88.6003324,110.004157 C88.4716004,109.919812 88.4087917,109.878672 88.3431573,109.835745 C87.958347,109.58407 87.6959741,109.415338 87.4303095,109.250426 C86.6616221,108.773362 86.0179548,108.396257 84.6228842,107.59521 C82.7160675,106.500255 81.858164,105.99013 80.8632951,105.339084 C79.8908166,104.70306 79.0800369,104.086721 77.6240425,102.914735 C77.5825401,102.881328 77.257842,102.619784 77.1626081,102.543176 C74.4671885,100.374932 72.988604,99.3963988 70.978692,98.6686703 C70.8167136,98.6116715 70.6471149,98.5790924 70.475497,98.5720083 C70.3847146,98.5682609 70.299455,98.5275645 70.2396482,98.4594321 C69.7977811,97.9560539 69.2817382,97.5225814 68.7124988,97.1758481 C68.5671542,97.0896141 68.4104698,97.0239998 68.2469665,96.9808971 C68.1015462,96.9425614 68.0002653,96.8115058 68.0002653,96.6616705 L68.0002959,49.166257 C67.9774947,47.4957741 69.2751205,46.1020171 70.9700122,46 L113.634432,46.2524255 C113.720881,46.252937 113.803711,46.2870648 113.865261,46.347533 C115.716297,48.1660227 117.23556,49.8325248 120.129479,53.1391199 C120.216626,53.2386933 120.56532,53.6372145 120.652542,53.7368755 C124.458778,58.0858812 126.408353,60.1667158 128.888227,62.3534327 C128.959306,62.4161089 129,62.5061285 129,62.6006844 L129,97.5341849 C129,97.6557518 128.932942,97.7674877 128.825441,97.8250451 C126.791965,98.9137963 125.245705,100.010602 122.008328,102.523253 C119.470148,104.493302 118.339174,105.33019 116.883055,106.262549 C115.973304,106.846349 115.088548,107.463452 113.775202,108.415097 C113.65178,108.504528 113.523416,108.597715 113.365363,108.712586 C113.285929,108.770318 113.006956,108.973159 112.954889,109.011007 C108.775912,112.04867 106.66257,113.339335 103.850976,114.255689 Z M112.564034,108.477522 C112.616045,108.439715 112.895041,108.236856 112.974543,108.179075 C113.132832,108.064032 113.261438,107.97067 113.385154,107.881026 C114.707825,106.922625 115.601278,106.299456 116.52424,105.707178 C117.958266,104.788965 119.078283,103.960184 121.479078,102.09677 C124.775141,99.5385664 126.344724,98.4192357 128.336957,97.3374414 L128.336957,62.7491325 C125.881802,60.5734575 123.920327,58.4756953 120.152748,54.170859 C120.065488,54.0711553 119.716794,53.672634 119.629685,53.5731032 C116.796673,50.3361007 115.288415,48.6794114 113.495497,46.912048 L70.9881838,46.6598193 C69.6689142,46.7398005 68.6452878,47.8392595 68.6633087,49.1617679 L68.6633087,96.4214563 C68.798204,96.4725734 68.9290359,96.5356117 69.0551009,96.6104232 C69.6458773,96.970248 70.1819726,97.4120957 70.6473343,97.9224796 C70.8355958,97.9417044 71.0214431,97.9832796 71.2023794,98.046961 C73.3038683,98.8078317 74.8297184,99.8176455 77.5791926,102.029372 C77.6746318,102.106145 77.9994446,102.367782 78.04079,102.401062 C79.4806572,103.560067 80.2781668,104.166318 81.2272902,104.787067 C82.2080546,105.428883 83.0581615,105.934372 84.8331728,106.953643 C86.3555923,107.827815 87.0037335,108.207541 87.7809684,108.68991 C88.0520845,108.858206 88.3182437,109.029373 88.7070786,109.28368 C88.7729355,109.326752 88.8359622,109.368035 88.9646599,109.452358 C90.8598675,110.69385 91.7796769,111.19821 92.9856434,111.536129 C93.6766165,111.707242 94.2342148,112.207387 94.4804432,112.866489 C95.4899979,113.361757 96.4722289,113.90919 97.4089777,114.49822 C98.0379057,114.846046 98.7017284,115.126882 99.3894638,115.336134 C100.794684,115.062558 101.519005,114.911601 102.299775,114.718385 C102.579654,114.186824 103.06737,113.790264 103.651441,113.625829 C106.371954,112.738199 108.44379,111.472493 112.564034,108.477522 Z" id="Shape" fill="#757575"></path>
                <path d="M129,63 L115.871795,61.4318026 C114.338731,61.2453735 113.248313,59.8416724 113,58.2679918 L114.28475,47 C119.17004,52.6148047 124.973009,57.0726525 129,63 Z" id="Shape" fill="#FFFFFF"></path>
                <path d="M120.313432,53.2423165 C120.047622,52.9955298 118.989652,52.0158302 118.727258,51.7722297 C116.605528,49.8024701 115.205278,48.4506919 113.890454,47.0617276 L112.669847,57.1293379 C112.929035,58.5737478 113.984838,59.7058093 115.303536,59.8566171 L127.961689,61.2785813 C126.127107,58.8406091 124.02946,56.692402 120.313432,53.2423165 Z M128.627111,61.9976769 L115.22537,60.4921804 C113.573172,60.303234 112.294286,58.9168085 112.004242,57.1881699 C111.999365,57.159104 111.99869,57.1295309 112.002235,57.1002877 L113.313687,46.2833827 C113.346974,46.0088274 113.702776,45.9012192 113.893978,46.1078804 C115.347894,47.6793522 116.812474,49.1043176 119.190676,51.3121791 C119.452663,51.5554006 120.510642,52.5351097 120.776865,52.7822801 C124.815858,56.5322162 126.964272,58.7630255 128.939741,61.4974952 C129.103306,61.7239035 128.912173,62.0296996 128.627111,61.9976769 Z" id="Shape" fill="#757575"></path>
                <path d="M92,80 C92,81.6568542 90.6568542,83 89,83 C87.3431458,83 86,81.6568542 86,80 C86,78.3431458 87.3431458,77 89,77 C90.6568542,77 92,78.3431458 92,80 Z" id="Shape" fill="#757575"></path>
                <path d="M112.999995,80.0000026 C112.999995,81.6568554 111.65685,83 109.999997,83 C108.343145,83 107,81.6568554 107,80.0000026 C107,78.3431498 108.343145,77.0000052 109.999997,77.0000052 C110.796101,76.9985186 111.560026,77.3141114 112.122957,77.8770426 C112.685889,78.4399739 113.001481,79.203899 112.999995,80.0000026 Z" id="Shape" fill="#757575"></path>
                <path d="M157.126029,66.4164733 L157.094119,66 L157.520864,66.0640315 C161.492773,66.6600022 163.640402,69.2080051 163.961515,72.6903753 C164.222234,75.5177935 163.125289,78.4750519 161.669364,78.7816544 C159.040314,79.3353048 157.10751,78.8779752 154.467813,76.9266418 C151.926999,75.0484053 152.920861,72.3805792 155.645029,70.3823945 C156.1714,69.9963004 156.549253,69.4380838 156.796919,68.7470177 C156.954951,68.306056 157.052667,67.8314082 157.100487,67.3476752 C157.13348,67.0139216 157.139287,66.7179235 157.1296,66.483977 C157.128171,66.4494669 157.126806,66.4266153 157.126029,66.4164733 Z M157.445393,68.9643494 C157.156394,69.7707505 156.704591,70.4382165 156.059789,70.9111801 C153.641393,72.6850801 152.824908,74.876771 154.884618,76.3993625 C157.368163,78.2352643 159.096529,78.644221 161.523329,78.1331624 C162.533563,77.9204176 163.51161,75.2836989 163.277913,72.7493236 C162.994392,69.6746231 161.19822,67.4401254 157.820849,66.789191 C157.81555,67.4572191 157.712072,68.2202294 157.445393,68.9643494 Z" id="Shape" fill="#757575"></path>
                <path d="M148.536728,134.432664 L148.506,134 L148.902809,134.066632 C151.404696,134.48675 152.76875,136.247965 152.974836,138.637543 C153.14326,140.590414 152.446512,142.632332 151.474947,142.852587 C149.817872,143.228246 148.598393,142.913814 146.942776,141.586406 C146.057505,140.876631 145.811857,139.963674 146.137963,139.003836 C146.387344,138.269824 146.965552,137.54477 147.665926,136.989454 C147.973559,136.745537 148.195275,136.389585 148.341328,135.94485 C148.434965,135.65972 148.493083,135.351453 148.52151,135.036783 C148.541176,134.819095 148.544576,134.626106 148.538745,134.474295 C148.537899,134.45227 148.537117,134.43815 148.536728,134.432664 Z M148.941007,136.17481 C148.75516,136.74072 148.462326,137.210849 148.042361,137.543832 C147.434392,138.02588 146.935545,138.651419 146.735298,139.240812 C146.505792,139.916324 146.664819,140.507351 147.321934,141.0342 C148.834696,142.247073 149.869669,142.513932 151.344296,142.179633 C151.901864,142.053232 152.483367,140.349054 152.341262,138.701348 C152.171334,136.731026 151.133197,135.28962 149.175066,134.821088 C149.160287,135.245255 149.09222,135.714361 148.941007,136.17481 Z" id="Shape" fill="#757575"></path>
                <path d="M35.1033681,117.416492 L35.0714339,117 L35.498165,117.064027 C39.4694568,117.659877 41.6246014,120.207019 41.9583443,123.688751 C42.2293637,126.516126 41.1439657,129.473907 39.6894216,129.780745 C37.0669071,130.333967 35.1596189,129.88363 32.4905387,127.932479 C29.9253398,126.057268 30.9094114,123.390702 33.6320335,121.382604 C34.1552805,120.996678 34.530894,120.438513 34.7769654,119.747451 C35.0541863,118.968909 35.1345386,118.149437 35.1069831,117.484759 C35.1055372,117.449882 35.1041562,117.426771 35.1033681,117.416492 Z M35.4258323,119.963552 C35.138729,120.769847 34.6895886,121.437274 34.0481924,121.910342 C31.6311599,123.69305 30.8234167,125.881813 32.9043529,127.403019 C35.4180391,129.240574 37.1223151,129.642977 39.5431698,129.132295 C40.5505508,128.919787 41.5178824,126.283745 41.2750106,123.750015 C40.980261,120.675076 39.1764917,118.44019 35.7982495,117.7892 C35.7932424,118.457191 35.6906433,119.219862 35.4258323,119.963552 Z" id="Shape" fill="#757575"></path>
                <g id="Group-13" transform="translate(30.000000, 33.000000)">
                    <path d="M100.332312,64.5048333 C99.8876915,64.8254346 99.2673867,64.7248551 98.9468226,64.2801828 C98.6262585,63.8355105 98.7268263,63.2151337 99.1714471,62.8945324 C100.148981,62.1896656 101.039549,61.5432218 101.825515,60.9693486 C102.100469,60.7685905 102.342666,60.5912753 102.549901,60.4391709 C102.674032,60.3480624 102.758796,60.2856984 102.801991,60.2538467 C103.243167,59.9285206 103.864509,60.0224771 104.189798,60.4637045 C104.515086,60.9049318 104.42114,61.5263462 103.979964,61.8516722 C103.935598,61.8843881 103.849646,61.9476256 103.72431,62.0396187 C103.515766,62.1926835 103.272243,62.3709701 102.99594,62.5727126 C102.206886,63.148841 101.313143,63.7975889 100.332312,64.5048333 Z" id="Shape" fill="#757575"></path>
                    <path d="M36.0851316,60.4786213 C36.4021825,60.0314368 37.0216758,59.9259725 37.4688085,60.2430603 C37.6241925,60.3530456 37.7075531,60.4119546 37.8033757,60.4795859 C38.0773767,60.672975 38.3961484,60.8973764 38.756304,61.1502038 C39.7856774,61.8728187 40.9399712,62.6781214 42.1920805,63.545415 C45.7692722,66.0232144 49.4128754,68.500918 52.905637,70.8127102 C53.5313381,71.2268499 54.1475491,71.6325445 54.7534756,72.0291885 C63.4275521,77.7073041 69.5873985,81.2355506 71.020331,81.2355506 C72.0934126,81.2355506 76.6326728,78.5970325 83.0911415,74.2404298 C87.9856557,70.938803 93.6351705,66.9119467 99.1647432,62.8541273 C99.606671,62.5298232 100.227794,62.6252176 100.552061,63.0671966 C100.876327,63.5091756 100.780944,64.1303709 100.339016,64.454675 C85.2248635,75.5460386 73.8474571,83.2207432 71.020331,83.2207432 C68.9700299,83.2207432 63.0142807,79.8093998 53.6664088,73.6902126 C53.0576206,73.2916953 52.4386088,72.8841567 51.8101565,72.4681961 C48.3045051,70.1478724 44.6497635,67.6625945 41.0619134,65.1774124 C39.8062581,64.3076626 38.6485762,63.4999963 37.6159173,62.7750749 C37.2543616,62.5212646 36.9342157,62.2958959 36.658862,62.101552 C36.5624105,62.0334768 36.4784263,61.9741272 36.4073323,61.9238262 C35.8735326,61.5453709 35.7680806,60.9258058 36.0851316,60.4786213 Z" id="Shape" fill="#757575"></path>
                    <path d="M39.64943,114.617826 C39.3034098,115.042986 38.6782848,115.107108 38.2531743,114.761048 C37.8280637,114.414988 37.7639483,113.78979 38.1099685,113.36463 L49.6889159,99.137417 C50.0349361,98.7122572 50.6600611,98.6481343 51.0851716,98.9941947 C51.5102821,99.340255 51.5743975,99.9654524 51.2283773,100.390612 L39.64943,114.617826 Z" id="Shape" fill="#757575"></path>
                    <path d="M102.861654,113.39567 C103.190533,113.834227 103.101664,114.456388 102.663158,114.785305 C102.224652,115.114223 101.602564,115.025342 101.273684,114.586786 L91.3488722,101.352169 C91.0199928,100.913612 91.1088626,100.291451 91.5473684,99.9625339 C91.9858742,99.6336164 92.6079628,99.7224965 92.9368421,100.161053 L102.861654,113.39567 Z" id="Shape" fill="#757575"></path>
                    <path d="M117.800571,17.7971173 C118.820899,17.0789738 119.662718,16.0008298 120.623719,14.3424919 C120.758331,14.110202 120.89475,13.8682326 121.059738,13.5705376 C121.137199,13.4307698 121.416376,12.9238824 121.477288,12.8138747 C123.337067,9.46431203 124.68427,5.80665633 126.230864,0.413175256 C126.281233,0.237523925 126.464441,0.135966813 126.640072,0.186341096 C126.815703,0.236715379 126.917249,0.419945343 126.86688,0.595596673 C125.30756,6.03345949 123.945371,9.73179839 122.055929,13.1347854 C121.995709,13.2435457 121.716447,13.7505862 121.638441,13.8913381 C121.471575,14.1924228 121.333206,14.4378489 121.196179,14.6743075 C120.191132,16.4086523 119.298292,17.5521397 118.181316,18.3383084 C117.511609,18.8094814 116.75277,19.1230299 115.973184,19.2748956 C114.755077,24.0066396 111.829802,28.1243536 107.75751,30.8286312 C107.65525,30.8975391 107.246268,31.1835183 107.185192,31.2255331 C107.086121,31.2936845 106.997462,31.3534024 106.912476,31.4089394 C106.40678,31.7394045 106.04051,31.9179512 105.725763,31.9360558 C105.543354,31.9465482 105.386977,31.8071649 105.376486,31.6247344 C105.365994,31.442304 105.505362,31.2859091 105.687771,31.2754167 C105.845636,31.2663362 106.142595,31.121577 106.550556,30.8549801 C106.630719,30.8025949 106.715171,30.7457101 106.810226,30.6803218 C106.8671,30.6411978 107.279855,30.3525799 107.389653,30.2786016 C111.255388,27.7114831 114.051084,23.8288409 115.264384,19.3680468 C113.850207,19.4652522 112.435599,19.0349469 111.41903,18.0534831 C110.208383,16.8812351 110.023804,14.7310097 110.808647,13.0373234 C111.656807,11.2069996 113.323032,10.602807 114.999956,11.9203347 C116.601336,13.1799895 116.758334,15.404628 116.13311,18.5610492 C116.721085,18.4114443 117.290106,18.1562556 117.800571,17.7971173 Z M114.591063,12.4405804 C113.281514,11.4116926 112.0912,11.8433147 111.408966,13.3155714 C110.73333,14.7735882 110.892011,16.6221251 111.878918,17.5777289 C112.802071,18.4690028 114.125173,18.8335564 115.432166,18.6885611 C116.066388,15.6420578 115.95777,13.5156401 114.591063,12.4405804 Z" id="Shape" fill="#757575"></path>
                    <path d="M15.0885208,57.8827569 C17.8755444,57.7091606 20.0056156,55.5139039 22.2977295,51.2752786 C22.6627991,50.6001842 24.2833341,47.388624 24.6975329,46.6617259 C24.7879978,46.5029645 24.9900206,46.4476078 25.1487636,46.5380832 C25.3075065,46.6285585 25.3628568,46.8306048 25.2723919,46.9893662 C24.8683038,47.6985206 23.2523722,50.9009579 22.8797202,51.5900736 C20.4865046,56.0156584 18.2208318,58.3506666 15.1295093,58.5432168 C14.6928809,58.5702277 14.255226,58.5526617 13.8259063,58.4935427 C12.6873153,60.6846374 10.4032923,62.889181 7.85452996,64.4759296 C6.58000606,65.2660608 6.51302241,65.3071564 6.03026837,65.5866077 C3.96904429,66.7797864 2.36268401,67.3392026 0.503759398,67.3392026 C0.321048654,67.3392026 0.172932331,67.1910691 0.172932331,67.0083372 C0.172932331,66.8256052 0.321048654,66.6774717 0.503759398,66.6774717 C2.22612132,66.6774717 3.72928529,66.1539937 5.69881806,65.0138923 C6.17299301,64.7394071 6.23951039,64.6985977 7.50540069,63.9138195 C9.89217381,62.4279176 12.0383526,60.3790731 13.1452802,58.3634004 C11.6651314,57.999403 10.3525373,57.1339956 9.62400111,55.9017247 C8.69615711,54.352943 8.4619324,52.5521823 9.3968,51.4967633 C10.3922173,50.3729868 12.6529386,50.2885367 13.9519134,51.1737197 C15.714091,52.330722 15.4285758,55.0341793 14.1311864,57.8635911 C14.4476829,57.8956253 14.7683542,57.9025632 15.0885208,57.8827569 Z M13.5840802,51.7237405 C12.5376839,51.0107239 10.6487643,51.0812852 9.89206538,51.9355606 C9.19824808,52.7188458 9.39507383,54.2320768 10.1925601,55.5632728 C10.8489201,56.6734556 12.0746739,57.4531451 13.4516404,57.7550735 C14.6770622,55.1518493 14.9824446,52.641928 13.5840802,51.7237405 Z" id="Shape" fill="#757575"></path>
                    <path d="M55.0902256,20.6871771 C55.0902256,20.5044452 55.2383419,20.3563117 55.4210526,20.3563117 C55.6037634,20.3563117 55.7518797,20.5044452 55.7518797,20.6871771 L55.7518797,32.929198 C55.7518797,33.1119299 55.6037634,33.2600634 55.4210526,33.2600634 C55.2383419,33.2600634 55.0902256,33.1119299 55.0902256,32.929198 L55.0902256,20.6871771 Z" id="Shape" fill="#757575"></path>
                    <path d="M52.112782,24.6575623 C52.112782,24.4748303 52.2608983,24.3266968 52.443609,24.3266968 C52.6263198,24.3266968 52.7744361,24.4748303 52.7744361,24.6575623 L52.7744361,34.9143906 C52.7744361,35.0971225 52.6263198,35.245256 52.443609,35.245256 C52.2608983,35.245256 52.112782,35.0971225 52.112782,34.9143906 L52.112782,24.6575623 Z" id="Shape" fill="#757575"></path>
                    <path d="M49.1353383,27.3044857 C49.1353383,27.1217538 49.2834547,26.9736203 49.4661654,26.9736203 C49.6488762,26.9736203 49.7969925,27.1217538 49.7969925,27.3044857 L49.7969925,37.8921794 C49.7969925,38.0749114 49.6488762,38.2230449 49.4661654,38.2230449 C49.2834547,38.2230449 49.1353383,38.0749114 49.1353383,37.8921794 L49.1353383,27.3044857 Z" id="Shape" fill="#757575"></path>
                    <path d="M62.037594,56.7515089 C63.3337872,56.7515089 63.3337872,58.405836 64.6299804,58.405836 C65.9261736,58.405836 65.9261736,56.7515089 67.2169206,56.7515089 C68.5076676,56.7515089 68.5131138,58.405836 69.809307,58.405836 C71.1055002,58.405836 71.1055002,56.7515089 72.4016934,56.7515089 C73.6978866,56.7515089 73.6978866,58.405836 74.9940798,58.405836 C76.290273,58.405836 76.290273,56.7515089 77.5864662,56.7515089" id="Shape" fill="#FFFFFF"></path>
                    <path d="M62.037594,57.0823743 L62.037594,56.4206434 C62.7113495,56.4206434 63.049853,56.6798619 63.5941888,57.374596 C64.0219979,57.9206073 64.2235749,58.0749706 64.6299804,58.0749706 C65.0364378,58.0749706 65.2385548,57.9201288 65.664883,57.374862 C66.208359,56.679765 66.5462144,56.4206434 67.2169206,56.4206434 C67.8873464,56.4206434 68.2257068,56.6794963 68.7692054,57.3717076 C69.1995928,57.919858 69.4025739,58.0749706 69.809307,58.0749706 C70.2157124,58.0749706 70.4172895,57.9206073 70.8450985,57.374596 C71.3894344,56.6798619 71.7279378,56.4206434 72.4016934,56.4206434 C73.0754489,56.4206434 73.4139524,56.6798619 73.9582882,57.374596 C74.3860973,57.9206073 74.5876743,58.0749706 74.9940798,58.0749706 C75.4004852,58.0749706 75.6020623,57.9206073 76.0298713,57.374596 C76.5742072,56.6798619 76.9127106,56.4206434 77.5864662,56.4206434 L77.5864662,57.0823743 C77.1800607,57.0823743 76.9784837,57.2367376 76.5506746,57.7827489 C76.0063388,58.4774829 75.6678353,58.7367014 74.9940798,58.7367014 C74.3203242,58.7367014 73.9818208,58.4774829 73.4374849,57.7827489 C73.0096759,57.2367376 72.8080988,57.0823743 72.4016934,57.0823743 C71.9952879,57.0823743 71.7937109,57.2367376 71.3659018,57.7827489 C70.821566,58.4774829 70.4830625,58.7367014 69.809307,58.7367014 C69.1356521,58.7367014 68.7957162,58.4769317 68.2508779,57.7830142 C67.8219056,57.236666 67.6202226,57.0823743 67.2169206,57.0823743 C66.8138919,57.0823743 66.6130738,57.2363937 66.1881449,57.7798708 C65.6433452,58.4766608 65.3039108,58.7367014 64.6299804,58.7367014 C63.9562248,58.7367014 63.6177214,58.4774829 63.0733855,57.7827489 C62.6455765,57.2367376 62.4439994,57.0823743 62.037594,57.0823743 Z" id="Shape" fill="#757575"></path>
                    <path d="M127.381295,32.8878967 C127.221392,32.7994888 127.163425,32.5981777 127.251823,32.4382559 C127.340221,32.278334 127.541508,32.2203605 127.701412,32.3087684 C128.031154,32.4910775 128.502736,32.8837636 128.967941,33.531481 C130.640069,35.8596302 130.773008,39.4882067 128.426366,44.646509 C128.3507,44.8128349 128.154543,44.8863223 127.988236,44.8106477 C127.82193,44.7349731 127.748451,44.5387929 127.824117,44.372467 C130.078244,39.4175259 129.954479,36.0393343 128.430555,33.9175334 C128.19417,33.5884089 127.942035,33.322015 127.691515,33.1134077 C127.545423,32.9917571 127.436043,32.9181658 127.381295,32.8878967 Z" id="Shape" fill="#757575"></path>
                    <path d="M130.161959,37.7635813 C130.232974,37.9319462 130.154071,38.1260082 129.985726,38.197031 C129.817381,38.2680537 129.623341,38.1891424 129.552327,38.0207775 C129.053921,36.839132 128.038786,35.9366853 126.785047,35.5622905 C126.609974,35.5100098 126.510427,35.3256866 126.562701,35.1505933 C126.614976,34.9754999 126.799278,34.8759407 126.974351,34.9282215 C128.416465,35.3588694 129.586343,36.3988816 130.161959,37.7635813 Z" id="Shape" fill="#757575"></path>
                    <path d="M129.856524,41.5114675 C129.867696,41.6938575 129.728914,41.8507718 129.546545,41.8619454 C129.364176,41.8731191 129.20728,41.7343208 129.196108,41.5519308 C129.194732,41.5294773 129.189556,41.4792933 129.178402,41.4054468 C129.159126,41.277822 129.129549,41.1344444 129.087564,40.9793741 C128.967128,40.5345418 128.772063,40.0895339 128.486427,39.6754047 C127.862287,38.7704992 126.895957,38.1356956 125.49845,37.8870654 C125.318563,37.8550618 125.198677,37.6832739 125.230677,37.5033663 C125.262677,37.3234588 125.434445,37.203559 125.614332,37.2355626 C127.188171,37.515564 128.307851,38.2511061 129.03107,39.2996617 C129.362273,39.7798551 129.587226,40.29305 129.726219,40.8064205 C129.810327,41.1170711 129.847401,41.3625336 129.856524,41.5114675 Z" id="Shape" fill="#757575"></path>
                    <path d="M128.85759,43.1179813 C128.895166,43.2968071 128.780677,43.4722389 128.601872,43.5098191 C128.423067,43.5473994 128.247655,43.4328971 128.210079,43.2540713 C128.20643,43.2367023 128.197483,43.1990913 128.182686,43.1441972 C128.157263,43.0498827 128.12487,42.9440668 128.084988,42.8297254 C127.970908,42.5026615 127.820603,42.1757259 127.630887,41.8727362 C126.811333,40.5638539 125.577424,40.1077506 123.711033,40.9765825 C123.545387,41.053693 123.348602,40.9819054 123.2715,40.8162403 C123.194399,40.6505752 123.266178,40.4537667 123.431824,40.3766561 C125.619178,39.3584111 127.204048,39.944244 128.19166,41.5215276 C128.409811,41.8699292 128.580367,42.2409128 128.709721,42.6117682 C128.787746,42.8354651 128.835278,43.0117978 128.85759,43.1179813 Z" id="Shape" fill="#757575"></path>
                    <path d="M129.915389,38.2178764 C129.735533,38.2500487 129.563652,38.13031 129.531484,37.9504326 C129.499315,37.7705551 129.61904,37.5986548 129.798896,37.5664825 C129.84018,37.5590978 129.927551,37.5352939 130.045181,37.488571 C130.246806,37.4084855 130.449174,37.2927591 130.637771,37.1354978 C131.186409,36.6780165 131.515846,35.966768 131.511232,34.9158435 C131.51043,34.7331133 131.657894,34.5843307 131.840603,34.5835283 C132.023312,34.5827259 132.172077,34.7302075 132.17288,34.9129377 C132.178358,36.1607482 131.76203,37.0595938 131.061477,37.6437487 C130.639185,37.9958765 130.21537,38.1642165 129.915389,38.2178764 Z" id="Shape" fill="#757575"></path>
                    <path d="M129.450548,41.4380293 C129.272694,41.396179 129.162437,41.2180565 129.204282,41.0401815 C129.246127,40.8623065 129.424229,40.7520367 129.602084,40.793887 C129.637436,40.8022057 129.71093,40.8161879 129.815816,40.8306168 C130.379771,40.9081985 130.998488,40.8838105 131.570894,40.6879642 C132.30672,40.4362045 132.863149,39.9303226 133.187937,39.0956467 C133.2542,38.9253555 133.44595,38.8410305 133.616221,38.9073016 C133.786493,38.9735727 133.870808,39.1653444 133.804544,39.3356356 C133.406558,40.3584262 132.699595,41.001167 131.785064,41.31407 C131.10028,41.5483657 130.383195,41.5766311 129.725654,41.486175 C129.599174,41.4687756 129.505371,41.4509294 129.450548,41.4380293 Z" id="Shape" fill="#757575"></path>
                    <path d="M128.518011,44.1666266 C128.335509,44.1578863 128.194647,44.0028369 128.203386,43.8203141 C128.212125,43.6377914 128.367157,43.4969128 128.549658,43.5056531 C128.577768,43.5069993 128.632547,43.5090909 128.710376,43.5112051 C129.318193,43.5277163 130.008577,43.5131243 130.658193,43.4440761 C131.743926,43.3286727 132.437614,43.0709784 132.514155,42.7728696 C132.559598,42.5958797 132.739899,42.4892441 132.916868,42.5346923 C133.093838,42.5801406 133.200461,42.7604623 133.155018,42.9374521 C132.977025,43.630694 132.1008,43.9561979 130.728118,44.1021012 C130.044445,44.1747693 129.327058,44.1899321 128.692411,44.1726919 C128.609867,44.1704496 128.550545,44.1681847 128.518011,44.1666266 Z" id="Shape" fill="#757575"></path>
                    <path d="M127.935264,41.4762412 C128.019715,41.5110855 128.059933,41.6078013 128.025092,41.692262 C127.990252,41.7767228 127.893548,41.8169449 127.809097,41.7821007 C127.788675,41.7736746 127.740026,41.7584102 127.663929,41.7422673 C127.019256,41.6055089 126.114868,41.7332453 124.972266,42.3395663 C124.891566,42.3823894 124.791436,42.351677 124.748617,42.2709681 C124.705799,42.1902593 124.736508,42.0901168 124.817208,42.0472937 C126.028293,41.4046322 127.011857,41.2657128 127.732574,41.4186028 C127.828781,41.4390118 127.896626,41.4602994 127.935264,41.4762412 Z" id="Shape" fill="#757575"></path>
                    <path d="M127.042454,40.8404267 C127.058768,40.9303242 126.999124,41.0164267 126.909237,41.032742 C126.81935,41.0490573 126.733258,40.9894073 126.716944,40.8995098 C126.488117,39.6385282 125.446063,38.7266249 124.23209,38.71934 C124.140736,38.7187918 124.067124,38.644282 124.067672,38.5529177 C124.06822,38.4615534 124.142721,38.3879323 124.234075,38.3884805 C125.6101,38.3967379 126.785691,39.4254996 127.042454,40.8404267 Z" id="Shape" fill="#757575"></path>
                    <path d="M130.265822,43.9937217 C130.185217,44.0367231 130.085019,44.0062322 130.042022,43.9256182 C129.999026,43.8450042 130.029513,43.7447941 130.110118,43.7017926 C130.13253,43.6898358 130.175498,43.6663039 130.236072,43.6321491 C130.337551,43.5749289 130.45076,43.5089782 130.572744,43.4352558 C130.9212,43.224662 131.269591,42.9943534 131.594099,42.7522336 C132.160581,42.3295727 132.591526,41.9172257 132.830259,41.5396496 C132.91523,41.4052622 132.973989,41.2777867 133.00549,41.1585679 C133.02883,41.0702341 133.119351,41.0175485 133.207674,41.0408913 C133.295998,41.064234 133.348677,41.1547657 133.325337,41.2430995 C133.284547,41.3974769 133.211836,41.5552209 133.109872,41.7164842 C132.844971,42.1354455 132.388045,42.5726533 131.79192,43.0174307 C131.457973,43.2665937 131.100877,43.5026568 130.743846,43.718433 C130.618909,43.7939402 130.502835,43.8615594 130.398547,43.9203635 C130.33566,43.9558232 130.290442,43.9805873 130.265822,43.9937217 Z" id="Shape" fill="#757575"></path>
                    <path d="M130.028294,43.8909496 C130.004442,43.8027526 130.056596,43.711917 130.144782,43.6880625 C130.232969,43.6642079 130.323794,43.7163678 130.347646,43.8045647 C130.355278,43.8327854 130.371683,43.8853628 130.39688,43.9539377 C130.439033,44.0686593 130.490037,44.1832634 130.549481,44.2891387 C130.660642,44.4871284 130.787037,44.6282498 130.919883,44.6905854 C131.002588,44.7293931 131.038178,44.8279063 130.999375,44.9106209 C130.960572,44.9933355 130.86207,45.0289291 130.779365,44.9901215 C130.572343,44.8929805 130.402835,44.7037232 130.261019,44.4511332 C130.192148,44.3284677 130.134177,44.1982068 130.086356,44.0680634 C130.05757,43.9897192 130.038321,43.9280263 130.028294,43.8909496 Z" id="Shape" fill="#757575"></path>
                    <path d="M130.691928,41.2507757 C130.664349,41.1636725 130.712595,41.0707017 130.799688,41.0431195 C130.886781,41.0155373 130.979741,41.0637886 131.00732,41.1508917 C131.168262,41.6591965 131.495369,42.0953904 131.93362,42.3864871 C132.00972,42.437035 132.03044,42.5397111 131.979898,42.6158205 C131.929356,42.69193 131.826691,42.7126517 131.750591,42.6621038 C131.249261,42.3291085 130.875581,41.8308109 130.691928,41.2507757 Z" id="Shape" fill="#757575"></path>
                    <path d="M130.625468,40.9964065 C130.555646,41.0553262 130.451286,41.0464816 130.392373,40.9766517 C130.333461,40.9068218 130.342304,40.8024497 130.412126,40.74353 C131.493457,39.8310419 132.283626,38.5892025 132.675263,37.1859717 C132.699824,37.0979697 132.791066,37.0465429 132.879058,37.0711068 C132.96705,37.0956707 133.018471,37.1869234 132.99391,37.2749255 C132.584551,38.7416544 131.757943,40.0407597 130.625468,40.9964065 Z" id="Shape" fill="#757575"></path>
                    <path d="M130.687785,37.5955217 C130.668895,37.5061304 130.726039,37.418349 130.81542,37.3994566 C130.904801,37.3805642 130.992572,37.4377149 131.011463,37.5271063 C131.015464,37.546043 131.029143,37.5881608 131.056531,37.6456941 C131.104179,37.7457856 131.173609,37.8467276 131.268992,37.9415896 C131.529453,38.2006283 131.930247,38.3665031 132.510057,38.3885975 C132.601347,38.3920762 132.672531,38.4689093 132.669053,38.560209 C132.665575,38.6515087 132.588751,38.7227017 132.497461,38.719223 C131.836667,38.6940426 131.356649,38.49538 131.035717,38.1761997 C130.822731,37.9643765 130.720231,37.7490611 130.687785,37.5955217 Z" id="Shape" fill="#757575"></path>
                    <path d="M131.419166,36.911264 C131.343286,36.8603861 131.323012,36.757621 131.373884,36.6817317 C131.424756,36.6058425 131.52751,36.5855667 131.60339,36.6364446 C131.598792,36.6333615 131.600935,36.6344205 131.610241,36.6374349 C131.809818,36.7020782 132.17182,36.590931 132.726571,36.112561 C132.795759,36.0528987 132.900208,36.0606277 132.959863,36.1298242 C133.019519,36.1990206 133.011791,36.3034813 132.942602,36.3631436 C132.307713,36.910618 131.831414,37.0568581 131.50831,36.9522041 C131.469071,36.9394945 131.439399,36.9248297 131.419166,36.911264 Z" id="Shape" fill="#757575"></path>
                    <path d="M130.967181,36.920746 C130.955494,37.0113613 130.872571,37.0753446 130.781966,37.0636566 C130.691361,37.0519687 130.627385,36.9690355 130.639072,36.8784202 C130.64453,36.836103 130.65295,36.7557061 130.661439,36.6441805 C130.701912,36.1124769 130.694432,35.5359112 130.60618,34.9975473 C130.480711,34.2321418 130.208667,33.6737389 129.769736,33.4005136 C129.692176,33.3522345 129.668435,33.2502149 129.716709,33.1726464 C129.764982,33.0950779 129.86699,33.0713342 129.94455,33.1196133 C130.481525,33.453869 130.793271,34.0937657 130.932649,34.9440183 C131.025814,35.5123585 131.033615,36.1135558 130.991311,36.6692962 C130.982364,36.786838 130.973348,36.8729301 130.967181,36.920746 Z" id="Shape" fill="#757575"></path>
                    <path d="M129.18374,36.278742 C129.16116,36.3672731 129.071095,36.4207348 128.982574,36.398152 C128.894053,36.3755693 128.840597,36.2854937 128.863177,36.1969626 C128.86735,36.1806036 128.875027,36.1482505 128.885047,36.1020964 C128.901931,36.0243247 128.918856,35.9370858 128.934665,35.8425928 C128.985354,35.5396301 129.012974,35.2349413 129.005588,34.9531922 C128.994745,34.5396048 128.908467,34.2202828 128.740974,34.0316391 C128.680316,33.9633206 128.686519,33.8587583 128.75483,33.7980926 C128.82314,33.737427 128.92769,33.7436309 128.988349,33.8119495 C129.218455,34.0711132 129.323607,34.4602879 129.336301,34.9445205 C129.344313,35.2501418 129.314867,35.5749724 129.260956,35.897197 C129.244237,35.9971284 129.226309,36.0895359 129.208341,36.1723002 C129.197449,36.2224678 129.188861,36.2586614 129.18374,36.278742 Z" id="Shape" fill="#757575"></path>
                    <path d="M129.047946,36.6428304 C129.08925,36.5613356 129.188789,36.5287577 129.270275,36.5700656 C129.35176,36.6113735 129.384334,36.7109247 129.343031,36.7924195 C129.318657,36.8405111 129.269647,36.897341 129.189567,36.9482322 C128.793473,37.1999518 128.03888,37.0792006 126.798654,36.382068 C126.719015,36.3373028 126.69074,36.236446 126.7355,36.1567978 C126.78026,36.0771497 126.881105,36.0488715 126.960744,36.0936366 C128.105988,36.7373797 128.74388,36.8394562 129.01214,36.6689759 C129.03943,36.6516327 129.049265,36.6402283 129.047946,36.6428304 Z" id="Shape" fill="#757575"></path>
                    <path d="M128.140578,39.0624432 C128.225177,39.0279602 128.321709,39.0685953 128.356188,39.1532041 C128.390667,39.237813 128.350036,39.3343561 128.265437,39.3688391 C127.476045,39.6905995 126.627889,39.7075645 125.830654,39.417422 C125.744806,39.3861788 125.700537,39.2912495 125.731776,39.2053915 C125.763016,39.1195335 125.857934,39.0752594 125.943782,39.1065026 C126.663764,39.3685298 127.427097,39.3532614 128.140578,39.0624432 Z" id="Shape" fill="#757575"></path>
                    <path d="M128.359471,38.6062682 C128.364425,38.5989827 128.368421,38.5882814 128.368421,38.5539103 C128.368421,38.6452763 128.294363,38.719343 128.203008,38.719343 C128.111652,38.719343 128.037594,38.6452763 128.037594,38.5539103 C128.037594,38.4708299 128.058366,38.4430726 128.162819,38.3280791 C128.166281,38.3242681 128.227161,38.2578893 128.246587,38.2362943 C128.280858,38.1981967 128.310089,38.1643095 128.337688,38.1302501 C128.639228,37.7581217 128.666822,37.4688812 128.280225,37.1566458 C128.231644,37.1174092 128.176639,37.078387 128.115011,37.0396648 C128.037655,36.9910603 128.014343,36.8889418 128.062942,36.8115768 C128.111541,36.7342119 128.213648,36.7108969 128.291004,36.7595015 C128.363412,36.8049973 128.429048,36.8515618 128.488075,36.8992348 C129.044688,37.3487835 128.997707,37.8412324 128.59471,38.3385672 C128.56313,38.3775404 128.530326,38.4155702 128.492529,38.4575867 C128.471815,38.4806141 128.410169,38.5478274 128.40769,38.5505569 C128.386315,38.5740884 128.372083,38.5904233 128.362781,38.6021307 L128.359471,38.6062682 Z" id="Shape" fill="#757575"></path>
                    <path d="M118.456913,101.381295 C118.294661,101.297277 118.23123,101.097621 118.315238,100.935349 C118.399246,100.773078 118.598879,100.70964 118.761132,100.793658 C119.008092,100.921539 119.355984,101.192543 119.6984,101.638141 C120.921454,103.229744 121.018508,105.698988 119.323963,109.173303 C119.24386,109.337537 119.045801,109.405732 118.881585,109.32562 C118.71737,109.245507 118.649183,109.047425 118.729286,108.883191 C120.319885,105.621995 120.233345,103.420223 119.17378,102.041375 C119.010615,101.829042 118.836682,101.657208 118.664191,101.52284 C118.564636,101.445288 118.49127,101.399086 118.456913,101.381295 Z" id="Shape" fill="#757575"></path>
                    <path d="M120.564683,104.590858 C120.639861,104.757404 120.565808,104.953369 120.399281,105.028556 C120.232753,105.103743 120.036812,105.029681 119.961633,104.863135 C119.643572,104.158517 118.994155,103.617273 118.188803,103.391227 C118.012889,103.341851 117.910305,103.159201 117.959675,102.983266 C118.009045,102.807332 118.191674,102.704735 118.367588,102.754111 C119.357872,103.032065 120.164515,103.704345 120.564683,104.590858 Z" id="Shape" fill="#757575"></path>
                    <path d="M120.260812,107.003725 C120.282531,107.185161 120.153071,107.349853 119.971655,107.371574 C119.79024,107.393295 119.625568,107.26382 119.603849,107.082383 C119.453784,105.828731 118.476017,104.85085 117.251954,104.725269 C117.070198,104.706622 116.937969,104.544145 116.956614,104.362367 C116.975259,104.180589 117.137717,104.048345 117.319474,104.066992 C118.853706,104.224396 120.074237,105.445068 120.260812,107.003725 Z" id="Shape" fill="#757575"></path>
                    <path d="M119.594383,108.298236 C119.632088,108.477035 119.517726,108.652549 119.338948,108.690259 C119.160171,108.727969 118.984676,108.613594 118.946971,108.434795 C118.936684,108.386015 118.910957,108.291064 118.867031,108.16593 C118.793108,107.955346 118.695628,107.744879 118.57295,107.550567 C118.054396,106.729217 117.288517,106.443782 116.098344,106.980269 C115.931771,107.055355 115.735875,106.981173 115.660798,106.814581 C115.585721,106.647988 115.659894,106.452069 115.826468,106.376984 C117.335206,105.696898 118.446686,106.111135 119.132412,107.197272 C119.283902,107.437221 119.401921,107.692033 119.491329,107.946728 C119.5454,108.100763 119.578505,108.222942 119.594383,108.298236 Z" id="Shape" fill="#757575"></path>
                    <path d="M120.320167,105.052912 C120.140189,105.084401 119.968765,104.96401 119.93728,104.784012 C119.905795,104.604013 120.026171,104.432569 120.206149,104.40108 C120.226731,104.397479 120.277885,104.38375 120.348941,104.355828 C120.472912,104.307112 120.597612,104.236362 120.713693,104.140134 C121.054921,103.857267 121.260031,103.414224 121.255571,102.744006 C121.254354,102.561278 121.401481,102.412162 121.584188,102.410945 C121.766895,102.409729 121.915994,102.556873 121.91721,102.739601 C121.922988,103.607776 121.630451,104.239665 121.135931,104.649606 C120.837463,104.897026 120.537559,105.014877 120.320167,105.052912 Z" id="Shape" fill="#757575"></path>
                    <path d="M119.857435,106.979305 C119.679468,106.937937 119.568729,106.760113 119.610093,106.582126 C119.651457,106.404138 119.82926,106.293387 120.007227,106.334755 C120.027238,106.339407 120.072234,106.347859 120.137732,106.35675 C120.498535,106.405727 120.895644,106.38948 121.259586,106.264491 C121.720405,106.106232 122.066357,105.791968 122.27078,105.268382 C122.337237,105.098166 122.529082,105.014059 122.699278,105.080524 C122.869474,105.146989 122.953572,105.338856 122.887114,105.509072 C122.609431,106.2203 122.113348,106.670942 121.474475,106.89035 C120.998341,107.053869 120.503022,107.074135 120.048743,107.012469 C119.961864,107.000676 119.896745,106.988443 119.857435,106.979305 Z" id="Shape" fill="#757575"></path>
                    <path d="M119.255943,109.020848 C119.073414,109.01271 118.932041,108.858126 118.940178,108.675576 C118.948315,108.493025 119.102881,108.351636 119.28541,108.359774 C119.303161,108.360565 119.338398,108.361815 119.388816,108.363086 C119.806479,108.373607 120.28386,108.363283 120.732266,108.316429 C121.434845,108.243018 121.891052,108.079825 121.930261,107.943924 C121.980914,107.768354 122.164287,107.667095 122.339836,107.717754 C122.515385,107.768413 122.616633,107.951808 122.56598,108.127377 C122.416129,108.646776 121.788073,108.871442 120.801019,108.974578 C120.319477,109.024894 119.81589,109.035785 119.372155,109.024607 C119.317328,109.023225 119.277838,109.021824 119.255943,109.020848 Z" id="Shape" fill="#757575"></path>
                    <path d="M119.027496,107.005437 C119.104973,107.053849 119.12854,107.155909 119.080134,107.233395 C119.031728,107.310881 118.92968,107.33445 118.852203,107.286039 C118.842771,107.280145 118.814605,107.26672 118.768483,107.251809 C118.362011,107.120399 117.790715,107.239488 117.058779,107.830324 C116.98769,107.887709 116.883548,107.876593 116.82617,107.805496 C116.768792,107.734399 116.779907,107.630244 116.850996,107.57286 C117.667758,106.91355 118.354778,106.770338 118.87024,106.936983 C118.943225,106.960579 118.995845,106.98566 119.027496,107.005437 Z" id="Shape" fill="#757575"></path>
                    <path d="M118.771482,106.681065 C118.788669,106.7708 118.729866,106.857478 118.640142,106.874667 C118.550418,106.891856 118.46375,106.833046 118.446563,106.743312 C118.277862,105.862509 117.513711,105.225642 116.623624,105.223294 C116.532269,105.223053 116.458406,105.148791 116.458647,105.057425 C116.458888,104.966059 116.533141,104.892188 116.624497,104.892429 C117.673335,104.895197 118.573054,105.64505 118.771482,106.681065 Z" id="Shape" fill="#757575"></path>
                    <path d="M120.336962,108.514569 C120.255204,108.555334 120.155883,108.522096 120.115122,108.440328 C120.074361,108.358561 120.107596,108.259228 120.189354,108.218463 C120.203946,108.211187 120.232235,108.196704 120.27225,108.175606 C120.339456,108.140173 120.414472,108.099301 120.495322,108.053589 C120.726228,107.923035 120.957061,107.78019 121.171822,107.630079 C121.549736,107.36593 121.83511,107.108629 121.987416,106.877274 C122.036812,106.80224 122.070728,106.731906 122.088895,106.667362 C122.11365,106.579414 122.205005,106.528188 122.292942,106.552945 C122.38088,106.577702 122.4321,106.669068 122.407345,106.757016 C122.379249,106.856838 122.330745,106.957425 122.263731,107.05922 C122.08331,107.333283 121.770674,107.615163 121.361336,107.901276 C121.1371,108.05801 120.89758,108.206231 120.658132,108.341614 C120.574358,108.38898 120.496509,108.431395 120.426528,108.468292 C120.384232,108.490592 120.353727,108.50621 120.336962,108.514569 Z" id="Shape" fill="#757575"></path>
                    <path d="M120.105844,108.748514 C120.077607,108.661622 120.125149,108.568289 120.212031,108.540049 C120.298913,108.511809 120.392235,108.559356 120.420472,108.646248 C120.425934,108.663056 120.438183,108.695949 120.457086,108.739338 C120.48887,108.812292 120.527079,108.88518 120.571149,108.95225 C120.654852,109.07964 120.748211,109.168082 120.844265,109.204333 C120.929737,109.23659 120.97288,109.332037 120.940626,109.417519 C120.908372,109.503001 120.812936,109.546149 120.727464,109.513891 C120.555143,109.448857 120.413287,109.314471 120.294675,109.133954 C120.200017,108.989893 120.138096,108.847762 120.105844,108.748514 Z" id="Shape" fill="#757575"></path>
                    <path d="M120.765575,106.756974 C120.740844,106.66902 120.792088,106.577668 120.880032,106.552933 C120.967976,106.528199 121.059317,106.579449 121.084049,106.667403 C121.188904,107.040306 121.401733,107.359586 121.685667,107.572403 C121.758771,107.627197 121.77362,107.730885 121.718832,107.803997 C121.664045,107.87711 121.560369,107.89196 121.487265,107.837167 C121.1439,107.579804 120.889726,107.198499 120.765575,106.756974 Z" id="Shape" fill="#757575"></path>
                    <path d="M120.693577,106.844276 C120.620635,106.899286 120.516916,106.884742 120.461913,106.811792 C120.40691,106.738842 120.421452,106.63511 120.494393,106.580101 C121.25653,106.005329 121.813207,105.225891 122.090356,104.346404 C122.117817,104.259263 122.210711,104.210885 122.297842,104.238349 C122.384972,104.265812 122.433344,104.358717 122.405884,104.445858 C122.107852,105.391611 121.510213,106.228403 120.693577,106.844276 Z" id="Shape" fill="#757575"></path>
                    <path d="M120.762219,104.426549 C120.745421,104.33674 120.8046,104.250318 120.894398,104.233518 C120.984195,104.216719 121.070608,104.275904 121.087405,104.365713 C121.097752,104.421032 121.139071,104.517994 121.228519,104.616905 C121.3726,104.776227 121.595202,104.878501 121.924361,104.89258 C122.015633,104.896484 122.086459,104.973648 122.082556,105.06493 C122.078652,105.156213 122.001497,105.227047 121.910225,105.223143 C121.493549,105.205321 121.187357,105.064642 120.98316,104.838843 C120.847603,104.688946 120.782896,104.537101 120.762219,104.426549 Z" id="Shape" fill="#757575"></path>
                    <path d="M121.171814,104.234352 C121.093058,104.188052 121.066743,104.086666 121.113038,104.0079 C121.159333,103.929135 121.260707,103.902816 121.339464,103.949117 C121.333187,103.945427 121.33177,103.944814 121.335621,103.945904 C121.474442,103.985195 121.737338,103.913358 122.148336,103.602458 C122.221197,103.547342 122.324938,103.561734 122.380047,103.634604 C122.435157,103.707473 122.420766,103.811226 122.347905,103.866342 C121.860583,104.234977 121.495,104.334875 121.245533,104.264265 C121.214008,104.255343 121.189445,104.244717 121.171814,104.234352 Z" id="Shape" fill="#757575"></path>
                    <path d="M121.05956,104.086818 C121.047658,104.177405 120.964582,104.241191 120.874006,104.229288 C120.783429,104.217385 120.71965,104.1343 120.731552,104.043713 C120.73484,104.018689 120.740015,103.970122 120.745263,103.902265 C120.771115,103.567985 120.765434,103.204205 120.706707,102.865772 C120.625001,102.394923 120.451818,102.055014 120.178178,101.89114 C120.0998,101.844201 120.074309,101.742605 120.121242,101.664218 C120.168175,101.585831 120.26976,101.560337 120.348137,101.607275 C120.720958,101.830547 120.936118,102.252845 121.032661,102.809197 C121.096816,103.1789 121.102898,103.568403 121.075105,103.927779 C121.069382,104.001783 121.063586,104.056172 121.05956,104.086818 Z" id="Shape" fill="#757575"></path>
                    <path d="M119.86161,103.772955 C119.840319,103.861805 119.75104,103.916571 119.662201,103.895277 C119.573361,103.873983 119.518602,103.784694 119.539893,103.695844 C119.551625,103.646886 119.5698,103.557888 119.588095,103.441823 C119.621664,103.228857 119.64028,103.015026 119.636293,102.81782 C119.630478,102.530216 119.576141,102.30977 119.473707,102.185106 C119.415705,102.114518 119.425902,102.010269 119.496482,101.952261 C119.567063,101.894252 119.671299,101.90445 119.729301,101.975039 C119.889311,102.169773 119.959872,102.456042 119.967052,102.811131 C119.971483,103.030263 119.951253,103.262632 119.914886,103.493346 C119.895127,103.618701 119.875248,103.716045 119.86161,103.772955 Z" id="Shape" fill="#757575"></path>
                    <path d="M119.446309,104.060958 C119.477921,103.975237 119.573031,103.931375 119.658743,103.962991 C119.744454,103.994607 119.78831,104.089728 119.756698,104.175449 C119.741258,104.217318 119.710077,104.267066 119.656746,104.313734 C119.390969,104.546303 118.913646,104.43933 118.176525,103.864894 C118.104464,103.808737 118.091565,103.704788 118.147716,103.632718 C118.203867,103.560648 118.307804,103.547748 118.379866,103.603906 C118.741636,103.885832 119.020076,104.03644 119.220432,104.081342 C119.341,104.108362 119.404908,104.094472 119.438901,104.064727 C119.446445,104.058125 119.448653,104.054603 119.446309,104.060958 Z" id="Shape" fill="#757575"></path>
                    <path d="M119.215162,105.232889 C119.301219,105.202226 119.395837,105.247139 119.426496,105.333206 C119.457156,105.419273 119.412248,105.513901 119.326191,105.544565 C118.751011,105.74951 118.136207,105.74951 117.561027,105.544565 C117.47497,105.513901 117.430062,105.419273 117.460722,105.333206 C117.491382,105.247139 117.585999,105.202226 117.672056,105.232889 C118.175428,105.412248 118.71179,105.412248 119.215162,105.232889 Z" id="Shape" fill="#757575"></path>
                    <path d="M119.105263,105.057861 C119.105263,105.149227 119.031205,105.223294 118.93985,105.223294 C118.848494,105.223294 118.774436,105.149227 118.774436,105.057861 C118.774436,104.999861 118.793868,104.965554 118.827829,104.924908 C118.841055,104.909078 118.856031,104.893619 118.878704,104.871552 C118.905471,104.845754 118.921917,104.829938 118.933885,104.818212 C118.955807,104.796733 118.974236,104.777896 118.991498,104.75909 C119.18764,104.545414 119.18764,104.408763 118.854159,104.206769 C118.776017,104.159438 118.751036,104.057715 118.798362,103.979564 C118.845688,103.901414 118.947399,103.87643 119.025541,103.923761 C119.559562,104.247225 119.559562,104.629489 119.235202,104.982846 C119.213526,105.00646 119.191182,105.029299 119.165401,105.054559 C119.152075,105.067615 119.134174,105.084831 119.109433,105.108668 C119.094456,105.123245 119.085609,105.132377 119.081691,105.137066 C119.095708,105.12029 119.105263,105.10342 119.105263,105.057861 Z" id="Shape" fill="#757575"></path>
                    <path d="M5.9675918,84.8336752 C5.80774031,84.7451736 5.74989148,84.5438286 5.83838283,84.3839586 C5.92687417,84.2240885 6.12819581,84.166233 6.2880473,84.2547346 C6.61772299,84.4372592 7.08924526,84.8301458 7.55441187,85.4778403 C9.22765394,87.8076503 9.35965305,91.4365274 7.00851256,96.592647 C6.93270003,96.7589061 6.73647783,96.8322204 6.57023802,96.7563991 C6.4039982,96.6805777 6.3306924,96.4843328 6.40650494,96.3180737 C8.66485466,91.365447 8.54197281,87.9872184 7.0170167,85.8638807 C6.78061321,85.5347143 6.52845154,85.2682058 6.2779013,85.0594398 C6.13178107,84.937688 6.02237068,84.8640035 5.9675918,84.8336752 Z" id="Shape" fill="#757575"></path>
                    <path d="M8.74845304,90.0403851 C8.81943114,90.2087653 8.74048693,90.4028102 8.57212623,90.4737966 C8.40376552,90.5447829 8.20974309,90.4658295 8.138765,90.2974493 C7.64018696,89.1146803 6.62493367,88.2121283 5.37179233,87.8391114 C5.19667341,87.7869845 5.09696374,87.602749 5.14908456,87.4276097 C5.20120537,87.2524705 5.38541958,87.1527493 5.5605385,87.2048761 C7.00242305,87.6340754 8.1726374,88.6743866 8.74845304,90.0403851 Z" id="Shape" fill="#757575"></path>
                    <path d="M8.44302247,93.4578778 C8.45389775,93.6402857 8.31486019,93.7969737 8.13247339,93.8078503 C7.95008659,93.8187268 7.79341672,93.6796731 7.78254144,93.4972652 C7.78120387,93.4748305 7.77610893,93.4246693 7.76507176,93.3508494 C7.74599569,93.2232631 7.71663552,93.079927 7.67487558,92.9249012 C7.55508441,92.4801992 7.36059592,92.0353254 7.07539773,91.6213232 C6.45185301,90.716167 5.48491411,90.0813005 4.08507648,89.8329662 C3.90517406,89.8010512 3.78520362,89.6293222 3.817115,89.449399 C3.84902638,89.2694757 4.02073539,89.1494913 4.20063781,89.1814064 C5.77699486,89.4610556 6.8975397,90.1967757 7.62025666,91.2458932 C7.95107908,91.726125 8.17545305,92.2393589 8.31375124,92.7527647 C8.39743816,93.0634365 8.43414145,93.3089189 8.44302247,93.4578778 Z" id="Shape" fill="#757575"></path>
                    <path d="M7.44406521,95.3947626 C7.48161702,95.5735935 7.36710448,95.7490099 7.18829431,95.7865661 C7.00948414,95.8241222 6.8340881,95.7095964 6.79653629,95.5307655 C6.79289003,95.5134011 6.78394954,95.4757948 6.76915916,95.4209054 C6.7437469,95.3265966 6.71136299,95.2207865 6.67148781,95.1064509 C6.55742767,94.7794019 6.40711855,94.4524808 6.21736522,94.1495039 C5.39800355,92.841239 4.1639875,92.3848952 2.297272,93.2521559 C2.13156768,93.3291408 1.93483646,93.2572039 1.85786053,93.0914803 C1.78088459,92.9257568 1.85281316,92.7290028 2.01851747,92.6520179 C4.20605336,91.6357067 5.7907422,92.2217307 6.7781015,93.7982353 C6.99631224,94.1466498 7.16688677,94.517648 7.29622979,94.8885182 C7.37424907,95.1122259 7.42176615,95.288569 7.44406521,95.3947626 Z" id="Shape" fill="#757575"></path>
                    <path d="M8.50114661,90.1638747 C8.32122044,90.1956555 8.14960099,90.0755431 8.11782386,89.895596 C8.08604672,89.715649 8.20614525,89.5440096 8.38607143,89.5122288 C8.42720457,89.5049634 8.51442132,89.4813483 8.63189473,89.4347969 C8.83332516,89.3549758 9.03551588,89.2393262 9.22398256,89.081853 C9.77073227,88.6250167 10.1000334,87.913395 10.0977328,86.8609863 C10.0973333,86.6782548 10.2451254,86.5297978 10.4278357,86.5293983 C10.610546,86.5289988 10.7589858,86.676808 10.7593853,86.8595395 C10.7621142,88.1078632 10.3463451,89.0063427 9.6481979,89.5896791 C9.22565139,89.9427375 8.80147307,90.1108273 8.50114661,90.1638747 Z" id="Shape" fill="#757575"></path>
                    <path d="M8.03760639,93.3853819 C7.85967538,93.3438587 7.74909104,93.1659393 7.79060936,92.9879876 C7.83212767,92.810036 8.0100265,92.6994388 8.18795752,92.7409619 C8.22302699,92.749146 8.29597245,92.7629055 8.40012246,92.7771062 C8.96424854,92.8540237 9.58360298,92.8291427 10.1566887,92.6329775 C10.8932548,92.3808537 11.4499582,91.875164 11.7744103,91.0415003 C11.8406841,90.8712131 12.0324386,90.7868998 12.202706,90.8531812 C12.3729735,90.9194627 12.457277,91.1112395 12.3910032,91.2815267 C11.9933114,92.3033762 11.2860693,92.94581 10.3709428,93.2590544 C9.68573271,93.4935993 8.96825528,93.5224222 8.31074435,93.4327718 C8.18514945,93.4156472 8.0920251,93.3980814 8.03760639,93.3853819 Z" id="Shape" fill="#757575"></path>
                    <path d="M7.10440672,96.1123406 C6.92190696,96.1035615 6.78107768,95.9484822 6.78985571,95.7659613 C6.79863373,95.5834404 6.95369502,95.4425948 7.13619478,95.4513738 C7.16456536,95.4527386 7.21982553,95.4548584 7.29830625,95.4570011 C7.90597172,95.4735916 8.59562438,95.4591716 9.24446384,95.3904893 C10.3315186,95.27542 11.0252826,95.0177335 11.1002543,94.7201847 C11.1449005,94.5429921 11.3247197,94.4355462 11.5018918,94.4801976 C11.6790638,94.5248491 11.7864972,94.7046891 11.741851,94.8818817 C11.5666593,95.577185 10.6896403,95.9029384 9.31410555,96.0485445 C8.6312884,96.1208235 7.91468737,96.135807 7.28025054,96.1184855 C7.19703618,96.1162136 7.13721707,96.1139189 7.10440672,96.1123406 Z" id="Shape" fill="#757575"></path>
                    <path d="M6.54765295,93.8234879 C6.6246556,93.8726504 6.6472291,93.9749347 6.59807226,94.0519463 C6.54891542,94.1289579 6.44664294,94.151534 6.36964029,94.1023715 C6.35066807,94.0902586 6.30345831,94.0673335 6.22893055,94.0428607 C5.60043867,93.836482 4.71589037,94.0220824 3.58474055,94.9300505 C3.51349451,94.9872394 3.40938284,94.9758371 3.35220063,94.9045827 C3.29501842,94.8333284 3.30641942,94.7292047 3.37766546,94.6720159 C4.59356122,93.6960225 5.59396453,93.4861129 6.33213174,93.7285059 C6.43403467,93.7619679 6.50613015,93.7969775 6.54765295,93.8234879 Z" id="Shape" fill="#757575"></path>
                    <path d="M5.62887657,92.7860594 C5.64532239,92.8759327 5.5858061,92.9621229 5.49594321,92.9785706 C5.40608033,92.9950184 5.31990008,92.9354952 5.30345426,92.8456219 C5.07249737,91.5834864 4.03094876,90.6720257 2.81861942,90.6652127 C2.72726549,90.6646993 2.65362463,90.5902176 2.65413795,90.4988531 C2.65465127,90.4074885 2.7291244,90.3338391 2.82047833,90.3343525 C4.19485805,90.3420761 5.36980313,91.3702723 5.62887657,92.7860594 Z" id="Shape" fill="#757575"></path>
                    <path d="M8.85299933,95.9392123 C8.77260546,95.9826067 8.67225939,95.952605 8.62887011,95.8722018 C8.58548083,95.7917986 8.61547898,95.6914409 8.69587285,95.6480466 C8.71835028,95.6359139 8.76143346,95.6120476 8.82216498,95.57742 C8.92390453,95.5194105 9.03740357,95.4525726 9.15969853,95.3778852 C9.50904626,95.1645335 9.85833006,94.9313973 10.1836772,94.6865407 C10.740469,94.2674986 11.1669673,93.8589122 11.4093275,93.484103 C11.4966527,93.349055 11.558244,93.2208134 11.5929828,93.1007288 C11.6183724,93.0129623 11.7100953,92.9623982 11.7978516,92.9877907 C11.885608,93.0131833 11.9361662,93.1049168 11.9107766,93.1926833 C11.8663679,93.3461948 11.7909751,93.5031728 11.6871257,93.6637754 C11.4193382,94.0779078 10.9677617,94.5105191 10.3825985,94.9509137 C10.0478886,95.2028167 9.68996846,95.4417174 9.33211224,95.6602654 C9.20688582,95.736743 9.09054358,95.8052553 8.98601531,95.8648548 C8.92298614,95.9007925 8.87766883,95.9258965 8.85299933,95.9392123 Z" id="Shape" fill="#757575"></path>
                    <path d="M8.61488232,95.8372721 C8.59078199,95.7491427 8.64267946,95.6581603 8.73079857,95.6340572 C8.81891768,95.6099541 8.90988952,95.6618576 8.93398986,95.7499869 C8.94170571,95.778202 8.95820476,95.830703 8.98344094,95.8991576 C9.02565277,96.0136596 9.07653165,96.1280434 9.13560858,96.2337197 C9.24733818,96.4335807 9.37382648,96.5752533 9.5054356,96.6360323 C9.58837556,96.6743351 9.6245647,96.7726296 9.58626631,96.8555792 C9.54796791,96.9385288 9.44968481,96.9747221 9.36674485,96.9364193 C9.15939682,96.840663 8.9895219,96.6503954 8.84684943,96.3951841 C8.77854437,96.2730006 8.72082977,96.143249 8.6730396,96.0136154 C8.64427457,95.9355886 8.62496984,95.8741598 8.61488232,95.8372721 Z" id="Shape" fill="#757575"></path>
                    <path d="M9.27835003,93.1965081 C9.25084831,93.1093805 9.29917645,93.0164525 9.38629395,92.9889476 C9.47341145,92.9614427 9.56632869,93.0097764 9.59383042,93.096904 C9.75411642,93.6047025 10.0812059,94.0408724 10.5200798,94.3323554 C10.5961827,94.3828999 10.6169065,94.4855751 10.5663678,94.5616868 C10.5158291,94.6377985 10.4131659,94.6585247 10.337063,94.6079802 C9.83506162,94.2745704 9.46133047,93.7762044 9.27835003,93.1965081 Z" id="Shape" fill="#757575"></path>
                    <path d="M9.21222149,92.9420359 C9.14253385,93.0011142 9.03815398,92.9925071 8.97908252,92.9228114 C8.92001107,92.8531156 8.92861719,92.7487237 8.99830483,92.6896454 C10.077017,91.7751577 10.8668019,90.5339233 11.261836,89.1314636 C11.2866072,89.0435205 11.3779719,88.9923118 11.4659047,89.0170858 C11.5538376,89.0418599 11.6050404,89.1332351 11.5802692,89.2211782 C11.1675056,90.6865816 10.3415839,91.9846091 9.21222149,92.9420359 Z" id="Shape" fill="#757575"></path>
                    <path d="M9.2742516,89.5413941 C9.25536139,89.4520027 9.31250547,89.3642213 9.40188647,89.3453289 C9.49126747,89.3264365 9.57903864,89.3835872 9.59792885,89.4729786 C9.60193056,89.4919153 9.61560928,89.5340331 9.64299763,89.5915664 C9.6906455,89.6916579 9.76007554,89.7925999 9.85545821,89.8874619 C10.1159187,90.1465006 10.5167132,90.3123754 11.0965236,90.3344699 C11.1878127,90.3379485 11.2589974,90.4147816 11.2555192,90.5060813 C11.2520409,90.5973811 11.1752167,90.6685741 11.0839276,90.6650954 C10.423133,90.639915 9.94311495,90.4412523 9.62218284,90.1220721 C9.409197,89.9102488 9.3066976,89.6949335 9.2742516,89.5413941 Z" id="Shape" fill="#757575"></path>
                    <path d="M10.0072398,88.8648178 C9.93077165,88.8148277 9.90930228,88.7123058 9.95928658,88.6358288 C10.0092709,88.5593519 10.1117808,88.53788 10.1882489,88.5878701 C10.1835062,88.5847696 10.1853203,88.5856439 10.194109,88.5884209 C10.3933212,88.6513654 10.7563018,88.5385147 11.313037,88.0584333 C11.3822255,87.998771 11.486674,88.0065 11.5463294,88.0756965 C11.6059848,88.144893 11.5982567,88.2493536 11.5290682,88.3090159 C10.8928006,88.8576794 10.4166391,89.005718 10.0944462,88.9039157 C10.0561785,88.8918243 10.0271448,88.8778305 10.0072398,88.8648178 Z" id="Shape" fill="#757575"></path>
                    <path d="M9.55365112,89.1974521 C9.54198206,89.2880696 9.45907089,89.3520689 9.36846384,89.3403985 C9.27785679,89.3287281 9.21386492,89.2458073 9.22553398,89.1551897 C9.23099279,89.1127987 9.23941383,89.0322775 9.24790387,88.9205956 C9.28828842,88.3893583 9.28092979,87.8134194 9.19317016,87.2756518 C9.0679703,86.5084605 8.79585518,85.9494796 8.35653591,85.6774586 C8.27886199,85.6293638 8.2548788,85.5274009 8.30296796,85.449718 C8.35105711,85.3720351 8.45300822,85.3480491 8.53068214,85.3961438 C9.06866091,85.7292536 9.38057848,86.369997 9.51967707,87.222356 C9.61231225,87.7899997 9.61998453,88.390486 9.57777891,88.9456785 C9.56883232,89.0633661 9.55981674,89.1495722 9.55365112,89.1974521 Z" id="Shape" fill="#757575"></path>
                    <path d="M7.43260841,88.2252133 C7.40969747,88.3136594 7.3194331,88.366784 7.23099729,88.3438704 C7.14256147,88.3209568 7.08944306,88.230682 7.112354,88.1422359 C7.11664758,88.1256608 7.12454479,88.0929032 7.13485169,88.0461982 C7.15221763,87.9675058 7.1696248,87.8792824 7.18588429,87.7837837 C7.23725535,87.4820602 7.26560947,87.1789015 7.25910273,86.8985679 C7.24950665,86.4851349 7.16396542,86.1659966 6.99661344,85.9775114 C6.93595486,85.9091929 6.94215805,85.8046306 7.01046867,85.743965 C7.07877928,85.6832993 7.18332947,85.6895033 7.24398806,85.7578218 C7.47423484,86.0171441 7.57859773,86.4065025 7.5898407,86.8908895 C7.59690097,87.1950708 7.56666422,87.5183582 7.51201707,87.8393235 C7.49482116,87.9403223 7.47638327,88.0337695 7.45790414,88.1175063 C7.446704,88.1682589 7.43787352,88.2048878 7.43260841,88.2252133 Z" id="Shape" fill="#757575"></path>
                    <path d="M7.63533997,88.9214607 C7.67763829,88.8404781 7.77756959,88.8091223 7.85854277,88.8514256 C7.93951595,88.8937288 7.97086812,88.9936717 7.9285698,89.0746542 C7.90386056,89.1219615 7.85468353,89.1777057 7.77487062,89.2275282 C7.37738266,89.4756567 6.6229179,89.3539853 5.38517246,88.658835 C5.30551741,88.6140986 5.27720602,88.513252 5.3219372,88.4335877 C5.36666837,88.3539234 5.46750333,88.3256087 5.54715837,88.3703451 C6.69065718,89.012564 7.32941235,89.1155751 7.59970036,88.9468501 C7.6269755,88.9298239 7.63677185,88.9187193 7.63533997,88.9214607 Z" id="Shape" fill="#757575"></path>
                    <path d="M6.72772628,91.0080392 C6.81247796,90.9739331 6.90882803,91.0149974 6.94293018,91.0997589 C6.97703233,91.1845204 6.93597277,91.2808817 6.85122109,91.3149878 C6.06115503,91.6329292 5.21369483,91.6474588 4.4169685,91.3566219 C4.33115091,91.325295 4.28697449,91.2303226 4.31829771,91.144495 C4.34962093,91.0586675 4.44458232,91.014486 4.53039992,91.0458128 C5.25028886,91.308601 6.01335728,91.2955184 6.72772628,91.0080392 Z" id="Shape" fill="#757575"></path>
                    <path d="M6.94650731,90.5502893 C6.95096887,90.5435297 6.95488722,90.532769 6.95488722,90.4997826 C6.95488722,90.5911486 6.88082906,90.6652153 6.78947368,90.6652153 C6.69811831,90.6652153 6.62406015,90.5911486 6.62406015,90.4997826 C6.62406015,90.416553 6.64718124,90.385233 6.74904679,90.2726029 C6.75689926,90.2639206 6.81478495,90.2006929 6.83305233,90.1803857 C6.86755969,90.142025 6.89670895,90.108274 6.92426332,90.0743424 C7.23541231,89.691181 7.25637457,89.3965612 6.82778709,89.07252 C6.7891869,89.0433356 6.74702152,89.0142745 6.70121196,88.9853699 C6.62394832,88.9366186 6.60082988,88.8344561 6.64957549,88.7571835 C6.69832109,88.6799109 6.80047176,88.6567898 6.87773541,88.7055411 C6.93127595,88.7393237 6.98110545,88.7736671 7.02729193,88.8085872 C7.63247657,89.2661479 7.59653446,89.7713059 7.18106667,90.2829298 C7.14958931,90.3216923 7.11695009,90.3594841 7.07899654,90.4016759 C7.05952183,90.4233253 7.00122883,90.4869979 6.99439515,90.4945537 C6.97311014,90.518088 6.95884853,90.5345857 6.94960274,90.5463831 L6.94650731,90.5502893 Z" id="Shape" fill="#757575"></path>
                </g>
            </g>
        </g>
    </g>
</svg>